<svg width="53" height="53" viewBox="0 0 53 53" fill="none" xmlns="http://www.w3.org/2000/svg">
<path d="M36.8516 8.69531C32.5039 8.69531 28.7235 10.6559 26.5 13.9415C24.2765 10.6559 20.4961 8.69531 16.1484 8.69531C12.8551 8.69915 9.6978 10.0091 7.36908 12.3378C5.04036 14.6666 3.7304 17.8239 3.72656 21.1172C3.72656 27.1625 7.49453 33.4542 14.927 39.8142C18.3327 42.7162 22.0116 45.2816 25.912 47.4743C26.0928 47.5715 26.2948 47.6223 26.5 47.6223C26.7052 47.6223 26.9072 47.5715 27.088 47.4743C30.9884 45.2816 34.6673 42.7162 38.073 39.8142C45.5055 33.4542 49.2734 27.1625 49.2734 21.1172C49.2696 17.8239 47.9596 14.6666 45.6309 12.3378C43.3022 10.0091 40.1449 8.69915 36.8516 8.69531ZM26.5 44.9486C23.1026 42.988 6.21094 32.653 6.21094 21.1172C6.21368 18.4824 7.26154 15.9564 9.12459 14.0933C10.9876 12.2303 13.5137 11.1824 16.1484 11.1797C20.347 11.1797 23.8728 13.4218 25.351 17.0325C25.4446 17.2603 25.6038 17.4552 25.8084 17.5923C26.013 17.7294 26.2537 17.8027 26.5 17.8027C26.7463 17.8027 26.987 17.7294 27.1916 17.5923C27.3962 17.4552 27.5554 17.2603 27.649 17.0325C29.1272 13.4218 32.653 11.1797 36.8516 11.1797C39.4863 11.1824 42.0124 12.2303 43.8754 14.0933C45.7385 15.9564 46.7863 18.4824 46.7891 21.1172C46.7891 32.653 29.8974 42.988 26.5 44.9486Z" fill="black"/>
</svg>
